<svg width="146" height="48" viewBox="0 0 146 48" fill="none" xmlns="http://www.w3.org/2000/svg">
<path d="M42.812 12.172L24.812 4.17202C24.5561 4.05828 24.2791 3.99951 23.999 3.99951C23.7189 3.99951 23.442 4.05828 23.186 4.17202L5.186 12.172C5.146 12.19 5.118 12.22 5.078 12.242C5.022 12.27 4.962 12.288 4.91 12.322C4.866 12.352 4.832 12.39 4.79 12.422C4.64381 12.5307 4.51558 12.6616 4.41 12.81C4.37 12.866 4.328 12.916 4.292 12.972C4.23247 13.0777 4.18164 13.1881 4.14 13.302C4.122 13.356 4.094 13.406 4.078 13.46C4.02777 13.6357 4.00153 13.8173 4 14V34C4 34.792 4.464 35.506 5.188 35.828L23.188 43.828C23.448 43.944 23.724 44 24 44C24.2785 43.9929 24.5524 43.9275 24.804 43.808L24.812 43.828L42.812 35.828C43.1658 35.6711 43.4664 35.4148 43.6773 35.0903C43.8882 34.7658 44.0003 34.387 44 34V14C44.0003 13.613 43.8882 13.2342 43.6773 12.9097C43.4664 12.5852 43.1658 12.3289 42.812 12.172V12.172ZM24 8.19002L37.076 14L24 19.81L21.384 18.648L10.926 14L24 8.19002ZM26 38.922V23.3L40 17.078V32.702L26 38.922Z" fill="white"/>
<path d="M62.39 26.46V32H59.01V26.46L53.73 17.43H56.71C57.0033 17.43 57.2333 17.5 57.4 17.64C57.5733 17.7733 57.7167 17.9467 57.83 18.16L59.89 22.4C60.0633 22.7333 60.22 23.0467 60.36 23.34C60.5 23.6267 60.6233 23.91 60.73 24.19C60.83 23.9033 60.9433 23.6167 61.07 23.33C61.2033 23.0367 61.3567 22.7267 61.53 22.4L63.57 18.16C63.6167 18.0733 63.6733 17.9867 63.74 17.9C63.8067 17.8133 63.8833 17.7367 63.97 17.67C64.0633 17.5967 64.1667 17.54 64.28 17.5C64.4 17.4533 64.53 17.43 64.67 17.43H67.67L62.39 26.46ZM71.8084 20.03V23.43H76.3884V25.93H71.8084V29.4H77.7884V32H68.4084V17.43H77.7884V20.03H71.8084ZM84.2133 24.28C84.6733 24.28 85.0633 24.2233 85.3833 24.11C85.7099 23.99 85.9766 23.8267 86.1833 23.62C86.3899 23.4133 86.5399 23.1733 86.6333 22.9C86.7266 22.62 86.7733 22.32 86.7733 22C86.7733 21.36 86.5633 20.86 86.1433 20.5C85.7299 20.14 85.0866 19.96 84.2133 19.96H82.8533V24.28H84.2133ZM91.3933 32H88.3333C87.7666 32 87.3599 31.7867 87.1133 31.36L84.6933 27.13C84.5799 26.95 84.4533 26.82 84.3133 26.74C84.1733 26.6533 83.9733 26.61 83.7133 26.61H82.8533V32H79.4733V17.43H84.2133C85.2666 17.43 86.1633 17.54 86.9033 17.76C87.6499 17.9733 88.2566 18.2733 88.7233 18.66C89.1966 19.0467 89.5399 19.5033 89.7533 20.03C89.9666 20.5567 90.0733 21.13 90.0733 21.75C90.0733 22.2233 90.0099 22.67 89.8833 23.09C89.7566 23.51 89.5699 23.9 89.3233 24.26C89.0766 24.6133 88.7699 24.93 88.4033 25.21C88.0433 25.49 87.6266 25.72 87.1533 25.9C87.3733 26.0133 87.5799 26.1567 87.7733 26.33C87.9666 26.4967 88.1399 26.6967 88.2933 26.93L91.3933 32ZM95.6178 32H92.2178V17.43H95.6178V32Z" fill="white"/>
<path d="M101.409 23.33H101.949C102.449 23.33 102.809 23.1733 103.029 22.86L106.309 18.1C106.502 17.8467 106.709 17.6733 106.929 17.58C107.155 17.48 107.435 17.43 107.769 17.43H110.709L106.389 23.32C106.082 23.7267 105.752 24.02 105.399 24.2C105.652 24.2933 105.882 24.4233 106.089 24.59C106.295 24.7567 106.489 24.9733 106.669 25.24L111.069 32H108.049C107.855 32 107.689 31.9867 107.549 31.96C107.415 31.9333 107.299 31.8933 107.199 31.84C107.099 31.7867 107.012 31.7233 106.939 31.65C106.865 31.57 106.795 31.48 106.729 31.38L103.429 26.31C103.309 26.1233 103.155 25.9933 102.969 25.92C102.789 25.84 102.542 25.8 102.229 25.8H101.409V32H98.0288V17.43H101.409V23.33ZM124.47 17.43V32H121.07V25.84H115.15V32H111.75V17.43H115.15V23.52H121.07V17.43H124.47ZM141.197 24.71C141.197 25.7633 141.013 26.7433 140.647 27.65C140.287 28.5567 139.777 29.3467 139.117 30.02C138.457 30.6867 137.66 31.21 136.727 31.59C135.8 31.97 134.77 32.16 133.637 32.16C132.503 32.16 131.47 31.97 130.537 31.59C129.603 31.21 128.803 30.6867 128.137 30.02C127.477 29.3467 126.963 28.5567 126.597 27.65C126.237 26.7433 126.057 25.7633 126.057 24.71C126.057 23.6567 126.237 22.6767 126.597 21.77C126.963 20.8633 127.477 20.0767 128.137 19.41C128.803 18.7433 129.603 18.22 130.537 17.84C131.47 17.46 132.503 17.27 133.637 17.27C134.77 17.27 135.8 17.4633 136.727 17.85C137.66 18.23 138.457 18.7533 139.117 19.42C139.777 20.0867 140.287 20.8733 140.647 21.78C141.013 22.6867 141.197 23.6633 141.197 24.71ZM137.737 24.71C137.737 23.99 137.643 23.3433 137.457 22.77C137.27 22.19 137 21.7 136.647 21.3C136.3 20.9 135.873 20.5933 135.367 20.38C134.86 20.1667 134.283 20.06 133.637 20.06C132.983 20.06 132.4 20.1667 131.887 20.38C131.38 20.5933 130.95 20.9 130.597 21.3C130.25 21.7 129.983 22.19 129.797 22.77C129.61 23.3433 129.517 23.99 129.517 24.71C129.517 25.4367 129.61 26.09 129.797 26.67C129.983 27.2433 130.25 27.73 130.597 28.13C130.95 28.53 131.38 28.8367 131.887 29.05C132.4 29.2567 132.983 29.36 133.637 29.36C134.283 29.36 134.86 29.2567 135.367 29.05C135.873 28.8367 136.3 28.53 136.647 28.13C137 27.73 137.27 27.2433 137.457 26.67C137.643 26.09 137.737 25.4367 137.737 24.71ZM141.674 30.43C141.674 30.19 141.717 29.9667 141.804 29.76C141.897 29.5533 142.02 29.3733 142.174 29.22C142.334 29.0667 142.52 28.9467 142.734 28.86C142.947 28.7667 143.18 28.72 143.434 28.72C143.68 28.72 143.91 28.7667 144.124 28.86C144.337 28.9467 144.524 29.0667 144.684 29.22C144.844 29.3733 144.967 29.5533 145.054 29.76C145.147 29.9667 145.194 30.19 145.194 30.43C145.194 30.67 145.147 30.8967 145.054 31.11C144.967 31.3167 144.844 31.4967 144.684 31.65C144.524 31.8033 144.337 31.9233 144.124 32.01C143.91 32.0967 143.68 32.14 143.434 32.14C143.18 32.14 142.947 32.0967 142.734 32.01C142.52 31.9233 142.334 31.8033 142.174 31.65C142.02 31.4967 141.897 31.3167 141.804 31.11C141.717 30.8967 141.674 30.67 141.674 30.43Z" fill="#F5FF26"/>
</svg>
